<?xml version="1.0" encoding="utf-8"?>
<!-- Generator: Adobe Illustrator 17.0.0, SVG Export Plug-In . SVG Version: 6.00 Build 0)  -->
<!DOCTYPE svg PUBLIC "-//W3C//DTD SVG 1.1//EN" "http://www.w3.org/Graphics/SVG/1.1/DTD/svg11.dtd">
<svg version="1.1" id="Layer_1" xmlns="http://www.w3.org/2000/svg" xmlns:xlink="http://www.w3.org/1999/xlink" x="0px" y="0px"
	 width="404.845px" height="100.586px" viewBox="0 0 404.845 100.586" enable-background="new 0 0 404.845 100.586"
	 xml:space="preserve">
<g>
	<path fill="#FFFFFF" d="M236.343,57.056c-5.683,4.291-10.205,7.77-17.627,6.494c7.422-4.522,15.075-11.597,15.075-21.106
		c0-5.103-1.739-9.045-2.203-13.452c-0.348-3.247-1.043-4.291-4.522-4.291c-4.175,0-6.378,3.711-6.61,7.538l-25.164,23.078
		c-0.821,0.821-2.364,2.187-2.708,3.536c-4.588,3.188-7.124,4.582-9.468,4.582c-2.667,0-3.479-1.507-3.479-4.059
		c0-6.958,6.61-16.467,10.553-21.57c12.757,0.812,13.685-3.479,19.135-14.496l-7.189-0.58c1.159-1.624,4.522-5.45,4.522-7.538
		c0-1.855-2.203-2.203-3.711-2.203c-6.726,0-9.277,5.45-12.757,10.205c-12.408,0.464-13.336,2.319-19.598,12.524l-1.275,2.087
		c6.146-0.928,3.942-0.464,11.017-0.464c-2.798,4.764-6.492,8.929-10.647,12.735l-0.022-0.095
		c-6.146,4.871-15.888,13.336-24.121,13.336c-3.711,0-7.538-1.507-7.19-5.915l0.231-2.551c22.266-7.306,27.948-15.888,27.948-21.57
		c0-4.639-4.639-5.566-8.35-5.566c-12.333-0.095-25.824,10.289-30.073,22.387c-6.153,4.888-15.8,13.215-23.969,13.215
		c-3.711,0-7.538-1.507-7.19-5.915l0.232-2.551c22.266-7.306,27.948-15.888,27.948-21.57c0-4.639-4.639-5.566-8.35-5.566
		c-12.628-0.097-26.471,10.792-30.362,23.26c-3.963,3.19-10.736,9.907-15.445,9.907c-1.739,0-3.595-1.392-3.595-3.247
		c0-4.639,5.682-10.321,9.045-13.221c2.667-2.203,4.871-3.942,4.871-7.538c-0.232-2.087-1.044-3.943-2.783-6.146
		c-1.16-1.392-7.538,0-18.439,1.507c0.464-1.043,0.812-2.087,0.812-3.247c0-1.043-0.928-1.971-2.088-1.971
		c-2.783,0-14.611,8.35-14.611,16.699c0,2.435,0.695,3.363,3.131,3.595c-1.507,2.142-3.14,4.162-4.977,6.013l-11.956,7.439
		c-1.507-3.363-2.667-7.19-6.03-9.161l21.686-30.268c2.551-3.595,6.03-11.713,6.03-16.235C52.069,3.247,51.837,0,49.286,0
		c-5.915,0-20.874,27.6-23.89,33.282c-3.595,6.61-7.306,12.061-14.147,15.771c-3.363,1.855-6.494,3.131-6.494,7.77
		c0,2.899,1.507,4.639,3.363,6.61C4.986,70.044,0,79.205,0,86.743c0,3.827,1.508,14.612,6.842,13.8
		c8.466-1.275,24.701-14.032,25.629-27.832c0.116-2.087,0.348-4.175-0.116-6.378c5.683-2.783,10.321-6.842,14.96-11.017
		l-0.233-0.783c2.476-2.265,4.83-4.684,6.96-8.031l12.061-2.667l0.232,0.232c-4.639,5.566-10.669,11.713-10.669,19.599
		c0,4.406,3.015,8.929,7.886,8.929c5.615,0,16.08-9.286,21.806-15.139c-0.004,0.292-0.013,0.583-0.004,0.875
		c0.232,7.654,4.175,15.192,12.641,15.192c10.213,0,21.432-8.626,28.766-16.328c-0.01,0.379-0.017,0.757-0.005,1.136
		c0.232,7.654,4.175,15.192,12.641,15.192c10.67,0,22.438-9.415,29.726-17.354l0.773-0.621l0.232,0.232
		c-1.508,3.363-3.016,7.77-3.016,11.597c0,4.639,2.783,7.77,7.306,7.77c7.42,0,16.349-7.029,23.231-13.177
		c2.818,7.221,10.659,11.001,17.822,11.322c9.277,0.464,21.918-10.089,28.992-17.163l-1.16-4.407L236.343,57.056z M154.934,34.442
		c0.812-0.232,1.392,0.464,1.392,1.275c0.116,1.972-6.842,9.973-17.047,13.452C142.409,41.516,149.136,35.95,154.934,34.442z
		 M113.532,34.442c0.812-0.232,1.392,0.464,1.392,1.275c0.116,1.972-6.842,9.973-17.047,13.452
		C101.008,41.516,107.734,35.95,113.532,34.442z M12.524,91.034c-1.739-3.363-2.783-6.61-2.319-10.321
		c0.464-3.827,2.319-8.002,5.334-13.104c2.783,1.044,4.639,1.16,8.35,0.928C24.933,77.234,19.714,86.279,12.524,91.034z
		 M212.918,60.999c-2.204-3.015-4.755-6.61-9.046-6.842l16.699-15.655c0.696,3.943,1.159,7.074,1.508,9.509
		C221.73,54.736,219.875,56.708,212.918,60.999z"/>
	<path fill="#FFFFFF" d="M262.668,54.968c-6.61-1.392-11.713,8.234-11.713,12.409c0,3.942,4.175,4.522,7.307,4.87
		c7.189,0.812,10.089-13.452,10.089-13.568C268.351,55.316,264.291,55.316,262.668,54.968z"/>
	<path fill="#FFFFFF" d="M403.801,49.981c-6.146,4.871-15.887,13.336-24.121,13.336c-3.711,0-7.537-1.507-7.189-5.915l0.232-2.551
		c22.266-7.306,27.947-15.888,27.947-21.57c0-4.639-4.639-5.566-8.35-5.566c-12.445-0.096-26.066,10.479-30.182,22.718
		c-13.792,9.398-15.075,9.412-17.482,9.985c-1.391,0.348-2.898-1.508-2.783-2.899c0.116-2.667,0.812-4.522,9.857-14.496
		c1.275-1.392,3.596-3.942,3.596-5.914c0-1.624-1.276-3.363-2.088-4.639c-0.348-0.464-1.508-3.247-2.436-3.247
		c-1.392,0-4.291,2.319-5.45,3.247l-25.745,20.294l-0.231-0.231c2.552-4.523,10.785-13.916,10.785-19.019
		c0-3.016-1.624-5.335-4.755-5.335c-7.538,0-28.18,20.643-33.862,26.557c-0.348,0.348-1.739,1.855-2.319,1.855
		c-0.464,0-0.812-0.812-0.812-1.044c0-2.435,2.087-4.291,3.362-6.03c1.74-2.551,4.291-4.639,6.379-7.074
		c1.392-1.624,4.639-5.103,4.639-7.422c0-2.435-3.479-2.435-5.219-2.667c-6.958-0.928-19.25,14.612-19.366,25.977
		c0,4.175,1.623,13.221,7.189,13.221c2.088,0,3.711-1.74,4.987-3.247c5.45-6.727,11.944-13.685,17.975-20.062
		c0.812-0.812,3.363-3.595,4.522-3.595c0.464,0,0.812,0.348,0.812,0.812c0,0.348-0.464,1.275-0.695,1.508
		c-7.538,11.48-10.321,16.815-10.205,20.178c0.115,2.783,2.319,4.871,5.103,4.871c3.942,0,8.117-4.755,10.784-7.306l18.439-16.931
		l0.231,0.232c-2.899,4.754-8.581,12.988-8.581,18.787c0,3.363,2.436,6.726,5.914,6.726c5.711,0,19.309-10.579,26.214-16.05
		c-0.003,0.286-0.013,0.572-0.004,0.858c0.231,7.654,4.175,15.192,12.641,15.192c11.48,0,24.237-10.901,31.311-19.134
		L403.801,49.981z M389.073,34.442c0.812-0.232,1.392,0.464,1.392,1.275c0.116,1.972-6.842,9.973-17.047,13.452
		C376.549,41.516,383.275,35.95,389.073,34.442z"/>
</g>
</svg>
