<?xml version="1.0" encoding="utf-8"?>
<!-- Generator: Adobe Illustrator 15.1.0, SVG Export Plug-In . SVG Version: 6.00 Build 0)  -->
<!DOCTYPE svg PUBLIC "-//W3C//DTD SVG 1.1//EN" "http://www.w3.org/Graphics/SVG/1.1/DTD/svg11.dtd">
<svg version="1.1" id="Layer_1" xmlns="http://www.w3.org/2000/svg" xmlns:xlink="http://www.w3.org/1999/xlink" x="0px" y="0px"
	 width="638.968px" height="116.995px" viewBox="0 0 638.968 116.995" enable-background="new 0 0 638.968 116.995"
	 xml:space="preserve">
<g>
	<g>
		<path fill="#AA5C39" d="M111.785,98.217c0,5.5-4.5,10-10,10H17.449c-5.5,0-10-4.5-10-10v-3.23c0-5.5,4.5-10,10-10h84.336
			c5.5,0,10,4.5,10,10V98.217z"/>
	</g>
	<g>
		<path fill="#AA5C39" d="M111.785,22.145c0,5.5-4.5,10-10,10H17.449c-5.5,0-10-4.5-10-10v-3.229c0-5.5,4.5-10,10-10h84.336
			c5.5,0,10,4.5,10,10V22.145z"/>
	</g>
	<g>
		<path fill="#2A7E43" d="M111.785,47.37c0,5.5-4.5,10-10,10H17.449c-5.5,0-10-4.5-10-10V44.14c0-5.5,4.5-10,10-10h84.336
			c5.5,0,10,4.5,10,10V47.37z"/>
	</g>
	<g>
		<path fill="#AA4839" d="M111.785,72.84c0,5.5-4.5,10-10,10H17.449c-5.5,0-10-4.5-10-10v-3.229c0-5.5,4.5-10,10-10h84.336
			c5.5,0,10,4.5,10,10V72.84z"/>
	</g>
</g>
<g>
	<path d="M164.451,52.375h-13.662v46.004h-15.783V52.375h-8.693v-7.607l8.693-4.243v-4.243c0-6.59,1.621-11.402,4.864-14.438
		c3.242-3.035,8.436-4.554,15.576-4.554c5.451,0,10.298,0.812,14.542,2.433l-4.037,11.592c-3.174-1.001-6.106-1.501-8.797-1.501
		c-2.243,0-3.864,0.664-4.864,1.992c-1.001,1.328-1.501,3.027-1.501,5.097v3.623h13.662V52.375z"/>
	<path d="M205.798,39.437c2.139,0,3.915,0.155,5.33,0.466l-1.19,14.8c-1.277-0.345-2.829-0.518-4.657-0.518
		c-5.038,0-8.962,1.294-11.773,3.881c-2.812,2.588-4.217,6.21-4.217,10.867v29.445h-15.783V40.524h11.953l2.329,9.729h0.776
		c1.793-3.242,4.218-5.855,7.271-7.84C198.889,40.429,202.209,39.437,205.798,39.437z"/>
	<path d="M247.817,99.414c-9.315,0-16.595-2.57-21.838-7.711c-5.244-5.141-7.866-12.42-7.866-21.838
		c0-9.693,2.424-17.188,7.271-22.484c4.847-5.295,11.549-7.943,20.104-7.943c8.177,0,14.541,2.329,19.096,6.986
		c4.554,4.657,6.83,11.092,6.83,19.302v7.659h-37.311c0.173,4.484,1.501,7.986,3.985,10.504c2.483,2.52,5.968,3.777,10.453,3.777
		c3.483,0,6.778-0.361,9.884-1.086c3.104-0.725,6.347-1.881,9.729-3.467v12.213c-2.761,1.379-5.71,2.406-8.849,3.078
		C256.165,99.076,252.336,99.414,247.817,99.414z M245.592,50.667c-3.347,0-5.969,1.061-7.865,3.183
		c-1.898,2.121-2.984,5.132-3.261,9.03h22.148c-0.069-3.898-1.087-6.909-3.053-9.03C251.595,51.727,248.938,50.667,245.592,50.667z"
		/>
	<path d="M310.433,99.414c-9.315,0-16.595-2.57-21.838-7.711c-5.244-5.141-7.866-12.42-7.866-21.838
		c0-9.693,2.424-17.188,7.271-22.484c4.847-5.295,11.549-7.943,20.104-7.943c8.177,0,14.541,2.329,19.096,6.986
		c4.554,4.657,6.83,11.092,6.83,19.302v7.659h-37.311c0.173,4.484,1.501,7.986,3.985,10.504c2.483,2.52,5.968,3.777,10.453,3.777
		c3.483,0,6.778-0.361,9.884-1.086c3.104-0.725,6.347-1.881,9.729-3.467v12.213c-2.761,1.379-5.71,2.406-8.849,3.078
		C318.78,99.076,314.951,99.414,310.433,99.414z M308.207,50.667c-3.347,0-5.969,1.061-7.865,3.183
		c-1.898,2.121-2.984,5.132-3.261,9.03h22.148c-0.069-3.898-1.087-6.909-3.053-9.03C314.21,51.727,311.553,50.667,308.207,50.667z"
		/>
	<path d="M371.236,86.837c2.76,0,6.071-0.603,9.936-1.811v11.746c-3.933,1.76-8.764,2.641-14.489,2.641
		c-6.313,0-10.911-1.596-13.791-4.787c-2.881-3.191-4.321-7.979-4.321-14.36V52.375h-7.555v-6.676l8.693-5.278l4.554-12.213h10.091
		v12.316h16.197v11.851h-16.197v27.892c0,2.243,0.63,3.899,1.889,4.968C367.501,86.304,369.166,86.837,371.236,86.837z"/>
	<path d="M433.23,81.198c0,5.933-2.062,10.452-6.185,13.558s-10.289,4.658-18.5,4.658c-4.209,0-7.797-0.285-10.764-0.855
		c-2.967-0.568-5.743-1.404-8.331-2.51V83.009c2.932,1.38,6.235,2.535,9.91,3.467c3.674,0.932,6.908,1.396,9.702,1.396
		c5.727,0,8.591-1.655,8.591-4.967c0-1.242-0.38-2.252-1.139-3.027c-0.76-0.777-2.07-1.656-3.933-2.64
		c-1.863-0.983-4.347-2.13-7.452-3.441c-4.45-1.862-7.72-3.587-9.807-5.175c-2.087-1.586-3.604-3.406-4.554-5.459
		c-0.949-2.052-1.423-4.58-1.423-7.581c0-5.141,1.992-9.116,5.977-11.928c3.985-2.812,9.634-4.218,16.948-4.218
		c6.968,0,13.747,1.519,20.337,4.554l-4.761,11.385c-2.898-1.242-5.606-2.259-8.125-3.053s-5.089-1.19-7.71-1.19
		c-4.657,0-6.986,1.26-6.986,3.777c0,1.415,0.75,2.64,2.251,3.674c1.501,1.035,4.787,2.57,9.858,4.605
		c4.519,1.829,7.831,3.537,9.936,5.123c2.104,1.588,3.656,3.416,4.657,5.485C432.729,75.868,433.23,78.334,433.23,81.198z"/>
	<path d="M443.321,90.978c0-2.898,0.776-5.088,2.328-6.572c1.553-1.482,3.812-2.225,6.779-2.225c2.863,0,5.079,0.759,6.649,2.276
		c1.569,1.519,2.354,3.692,2.354,6.521c0,2.725-0.794,4.873-2.38,6.443c-1.587,1.568-3.796,2.354-6.624,2.354
		c-2.897,0-5.141-0.768-6.728-2.303S443.321,93.773,443.321,90.978z"/>
	<path d="M527.568,98.378h-15.783V64.586c0-4.174-0.699-7.305-2.097-9.393c-1.396-2.087-3.596-3.13-6.598-3.13
		c-4.036,0-6.969,1.483-8.797,4.45c-1.829,2.967-2.743,7.849-2.743,14.645v27.22h-15.783V40.524h12.058l2.122,7.399h0.88
		c1.552-2.656,3.794-4.734,6.727-6.235s6.296-2.251,10.091-2.251c8.659,0,14.523,2.829,17.595,8.486h1.397
		c1.552-2.69,3.837-4.777,6.856-6.261c3.019-1.483,6.425-2.226,10.22-2.226c6.555,0,11.515,1.682,14.878,5.046
		c3.364,3.363,5.046,8.754,5.046,16.171v37.725h-15.835V64.586c0-4.174-0.699-7.305-2.096-9.393c-1.397-2.087-3.597-3.13-6.599-3.13
		c-3.863,0-6.753,1.38-8.667,4.14c-1.915,2.76-2.872,7.141-2.872,13.144V98.378z"/>
	<path d="M606.018,99.414c-9.314,0-16.594-2.57-21.837-7.711c-5.245-5.141-7.866-12.42-7.866-21.838
		c0-9.693,2.424-17.188,7.271-22.484c4.847-5.295,11.548-7.943,20.104-7.943c8.176,0,14.541,2.329,19.095,6.986
		s6.831,11.092,6.831,19.302v7.659h-37.311c0.172,4.484,1.501,7.986,3.984,10.504c2.484,2.52,5.969,3.777,10.453,3.777
		c3.484,0,6.779-0.361,9.884-1.086c3.105-0.725,6.348-1.881,9.729-3.467v12.213c-2.761,1.379-5.711,2.406-8.85,3.078
		C614.366,99.076,610.537,99.414,606.018,99.414z M603.793,50.667c-3.347,0-5.969,1.061-7.866,3.183
		c-1.897,2.121-2.984,5.132-3.26,9.03h22.148c-0.069-3.898-1.087-6.909-3.054-9.03C609.796,51.727,607.139,50.667,603.793,50.667z"
		/>
</g>
</svg>
