<?xml version="1.0" encoding="utf-8"?>
<!-- Generator: Adobe Illustrator 15.1.0, SVG Export Plug-In . SVG Version: 6.00 Build 0)  -->
<!DOCTYPE svg PUBLIC "-//W3C//DTD SVG 1.1//EN" "http://www.w3.org/Graphics/SVG/1.1/DTD/svg11.dtd">
<svg version="1.1" id="Layer_1" xmlns="http://www.w3.org/2000/svg" xmlns:xlink="http://www.w3.org/1999/xlink" x="0px" y="0px"
	 width="234px" height="175.5px" viewBox="0 0 234 175.5" enable-background="new 0 0 234 175.5" xml:space="preserve">
<g>
	<g>
		<path fill="#AA5C39" d="M221.338,143.385c0,11-9,20-20,20H32.663c-11,0-20-9-20-20v-6.461c0-11,9-20,20-20h168.675
			c11,0,20,9,20,20V143.385z"/>
	</g>
	<g>
		<path fill="#AA5C39" d="M221.336,38.574c0,11-9,20-20,20H32.664c-11,0-20-9-20-20v-6.459c0-11,9-20,20-20h168.672c11,0,20,9,20,20
			V38.574z"/>
	</g>
	<g>
		<path fill="#2A7E43" d="M213.891,76.924c0,5.5-4.5,10-10,10H30.109c-5.5,0-10-4.5-10-10v-6.359c0-5.5,4.5-10,10-10h173.781
			c5.5,0,10,4.5,10,10V76.924z"/>
	</g>
	<g>
		<path fill="#AA4839" d="M213.891,104.924c0,5.5-4.5,10-10,10H30.109c-5.5,0-10-4.5-10-10v-6.359c0-5.5,4.5-10,10-10h173.781
			c5.5,0,10,4.5,10,10V104.924z"/>
	</g>
</g>
</svg>
