<?xml version="1.0" encoding="utf-8"?>
<!-- Generator: Adobe Illustrator 15.1.0, SVG Export Plug-In . SVG Version: 6.00 Build 0)  -->
<!DOCTYPE svg PUBLIC "-//W3C//DTD SVG 1.1//EN" "http://www.w3.org/Graphics/SVG/1.1/DTD/svg11.dtd">
<svg version="1.1" id="Layer_1" xmlns="http://www.w3.org/2000/svg" xmlns:xlink="http://www.w3.org/1999/xlink" x="0px" y="0px"
	 width="30.25px" height="28.75px" viewBox="44.979 43.562 30.25 28.75" enable-background="new 44.979 43.562 30.25 28.75"
	 xml:space="preserve">
<g>
	<g>
		<path fill="#AA5C39" d="M73.146,67.85c0,1.375-1.125,2.5-2.5,2.5H49.562c-1.375,0-2.5-1.125-2.5-2.5v-0.807
			c0-1.375,1.125-2.5,2.5-2.5h21.084c1.375,0,2.5,1.125,2.5,2.5V67.85z"/>
	</g>
	<g>
		<path fill="#AA5C39" d="M73.146,48.832c0,1.375-1.125,2.5-2.5,2.5H49.562c-1.375,0-2.5-1.125-2.5-2.5v-0.807
			c0-1.375,1.125-2.5,2.5-2.5h21.084c1.375,0,2.5,1.125,2.5,2.5V48.832z"/>
	</g>
	<g>
		<path fill="#2A7E43" d="M73.146,55.138c0,1.375-1.125,2.5-2.5,2.5H49.562c-1.375,0-2.5-1.125-2.5-2.5v-0.807
			c0-1.375,1.125-2.5,2.5-2.5h21.084c1.375,0,2.5,1.125,2.5,2.5V55.138z"/>
	</g>
	<g>
		<path fill="#AA4839" d="M73.146,61.506c0,1.375-1.125,2.5-2.5,2.5H49.562c-1.375,0-2.5-1.125-2.5-2.5v-0.807
			c0-1.375,1.125-2.5,2.5-2.5h21.084c1.375,0,2.5,1.125,2.5,2.5V61.506z"/>
	</g>
</g>
</svg>
