<?xml version="1.0" encoding="utf-8"?>
<!-- Generator: Adobe Illustrator 15.1.0, SVG Export Plug-In . SVG Version: 6.00 Build 0)  -->
<!DOCTYPE svg PUBLIC "-//W3C//DTD SVG 1.1//EN" "http://www.w3.org/Graphics/SVG/1.1/DTD/svg11.dtd">
<svg version="1.1" id="Layer_1" xmlns="http://www.w3.org/2000/svg" xmlns:xlink="http://www.w3.org/1999/xlink" x="0px" y="0px"
	 width="384.262px" height="217.406px" viewBox="0 0 384.262 217.406" enable-background="new 0 0 384.262 217.406"
	 xml:space="preserve">
<g>
	<g>
		<path fill="#AA5C39" d="M283.717,131.27c0,11-9,20-20,20H95.042c-11,0-20-9-20-20v-6.461c0-11,9-20,20-20h168.675c11,0,20,9,20,20
			V131.27z"/>
	</g>
	<g>
		<path fill="#AA5C39" d="M283.715,26.459c0,11-9,20-20,20H95.043c-11,0-20-9-20-20V20c0-11,9-20,20-20h168.672c11,0,20,9,20,20
			V26.459z"/>
	</g>
	<g>
		<path fill="#2A7E43" d="M276.27,64.809c0,5.5-4.5,10-10,10H92.488c-5.5,0-10-4.5-10-10v-6.359c0-5.5,4.5-10,10-10H266.27
			c5.5,0,10,4.5,10,10V64.809z"/>
	</g>
	<g>
		<path fill="#AA4839" d="M276.27,92.809c0,5.5-4.5,10-10,10H92.488c-5.5,0-10-4.5-10-10v-6.359c0-5.5,4.5-10,10-10H266.27
			c5.5,0,10,4.5,10,10V92.809z"/>
	</g>
</g>
<g>
	<g>
		<path d="M118.199,130.719c-8.676,9.749-14.966,20.904-18.371,33.522c-3.4,12.604-3.687,25.858-3.707,38.827
			c-0.005,3.092,4.165,1.146,4.168-1.117c0.019-12.174,0.341-24.435,3.132-36.338c2.893-12.335,9.074-23.224,17.458-32.645
			C122.945,130.647,120.247,128.418,118.199,130.719L118.199,130.719z"/>
	</g>
</g>
<g>
	<g>
		<path d="M230.3,138.058c7.093,14.104,22.864,21.222,33.702,32.028c6.575,6.556,12.021,14.143,16.965,21.972
			c4.872,7.713,9.111,15.218,11.175,24.205c0.63,2.74,4.619-0.034,4.129-2.172c-3.793-16.517-14.592-31.712-25.671-44.24
			c-5.557-6.282-12.008-11.443-18.704-16.437c-6.938-5.173-13.817-10.564-17.783-18.452
			C232.979,132.711,229.292,136.053,230.3,138.058L230.3,138.058z"/>
	</g>
</g>
<g>
	<g>
		<path d="M220.122,15.735c-1.889,12.743-14.212,21.501-18.551,33.437c-1.12,3.083,3.114,2.274,3.938,0.01
			c4.544-12.5,16.765-20.953,18.781-34.563C224.738,11.594,220.445,13.55,220.122,15.735L220.122,15.735z"/>
	</g>
</g>
<g>
	<g>
		<path d="M195.266,17.758c12.429,7.526,19.4,20.502,29.333,30.667c1.618,1.656,4.878-2.128,3.215-3.83
			c-9.938-10.168-16.895-23.134-29.333-30.667C196.443,12.694,193.315,16.577,195.266,17.758L195.266,17.758z"/>
	</g>
</g>
<g>
	<g>
		<path d="M142.526,17.239c-8.419,3.496-15.493,8.571-21.574,15.346c-6.062,6.755-10.867,14.556-16.753,21.467
			c-2.009,2.358,0.677,4.603,2.681,2.25c5.342-6.271,9.899-13.136,15.095-19.52c5.767-7.085,12.82-12.169,21.245-15.667
			C145.501,20.167,145.548,15.984,142.526,17.239L142.526,17.239z"/>
	</g>
</g>
<g>
	<g>
		<path d="M107.266,25.758c10.438,7.207,18.186,17.395,26.667,26.667c1.549,1.693,4.821-2.073,3.214-3.83
			c-8.481-9.271-16.229-19.459-26.667-26.667C108.522,20.576,105.359,24.441,107.266,25.758L107.266,25.758z"/>
	</g>
</g>
<g>
	<g>
		<path d="M204.938,110.758c-3.705-13.385-14.825-31.057-29.806-33.083c-7.776-1.052-14.496,5.286-17.984,11.528
			c-4.52,8.087-5.57,18.645-5.005,27.727c0.169,2.716,4.262-0.024,4.128-2.172c-0.741-11.907,3.226-37.57,20.705-31.846
			c11.681,3.825,20.731,18.807,23.834,30.018C201.562,115.65,205.522,112.873,204.938,110.758L204.938,110.758z"/>
	</g>
</g>
<g>
	<g>
		<path d="M201.584,109.622c-17.314-0.07-34.635-1.837-51.856,0.738c-2.243,0.335-3.434,4.756-0.377,4.299
			c16.835-2.518,33.884-0.663,50.811-0.594C202.35,114.074,204.377,109.634,201.584,109.622L201.584,109.622z"/>
	</g>
</g>
<g>
	<g>
		<path d="M82.25,53.622c-19.021,0.15-36.825,6.024-51.284,18.553c-14.189,12.295-23.46,29.293-30.729,46.33
			c-1.282,3.005,3.006,2.191,3.938,0.01c6.636-15.554,15.062-30.75,27.607-42.333c13.487-12.453,30.904-17.974,49.046-18.118
			C83.014,58.047,85.038,53.6,82.25,53.622L82.25,53.622z"/>
	</g>
</g>
<g>
	<g>
		<path d="M273.933,57.758c41.668,27.324,84.832,54.661,106.367,101.633c1.041,2.271,4.747-1.058,3.812-3.096
			c-21.666-47.256-65.031-74.869-106.965-102.368C275.155,52.622,272.007,56.495,273.933,57.758L273.933,57.758z"/>
	</g>
</g>
</svg>
